<svg width="34" height="34" viewBox="0 0 34 34" fill="none" xmlns="http://www.w3.org/2000/svg">
<path d="M12.3875 26.0798C10.7827 29.2068 6.94839 30.44 3.82345 28.8341C0.698523 27.2282 -0.53377 23.3914 1.07105 20.2645L7.33418 8.05066C8.93898 4.9237 12.7733 3.69054 15.8982 5.29642C19.0233 6.90231 20.2554 10.739 18.6506 13.866L12.3875 26.0798Z" fill="#2A8BEA"/>
<path d="M19.3535 10.9835C19.3601 7.46093 16.5117 4.60003 12.9914 4.59346C9.47111 4.58688 6.61205 7.43712 6.60548 10.9597C6.59891 14.4822 9.44731 17.3431 12.9676 17.3496C16.4878 17.3562 19.3469 14.506 19.3535 10.9835Z" fill="#48CAED"/>
<path d="M21.6076 8.05066C23.2125 4.9237 27.0467 3.69054 30.1717 5.29642C33.2966 6.90231 34.5289 10.739 32.9241 13.866L26.661 26.0798C25.0561 29.2068 21.2218 30.44 18.0969 28.8341C14.9719 27.2282 13.7397 23.3914 15.3445 20.2645L21.6076 8.05066Z" fill="#F73C5C"/>
<path d="M27.3907 23.1708C27.3972 19.6483 24.5488 16.7873 21.0285 16.7808C17.5083 16.7742 14.6492 19.6244 14.6426 23.147C14.636 26.6695 17.4845 29.5304 21.0047 29.537C24.525 29.5435 27.3841 26.6933 27.3907 23.1708Z" fill="#FFA4B3"/>
</svg>
