<svg width="22" height="22" viewBox="0 0 22 22" fill="none" xmlns="http://www.w3.org/2000/svg">
<path d="M21.0124 10.3905L11.5507 0.92876L10.6393 0L3.5111 7.12242L0.254642 10.3905C0.0915865 10.5537 0 10.7751 0 11.0058C0 11.2365 0.0915865 11.4578 0.254642 11.6211L6.76176 18.1282L10.6393 22L17.7617 14.8776L17.872 14.7673L21.0124 11.6095C21.1719 11.4467 21.2613 11.2279 21.2613 11C21.2613 10.7721 21.1719 10.5533 21.0124 10.3905ZM10.6393 14.2448L7.38867 10.9942L10.6393 7.74353L13.89 10.9942L10.6393 14.2448Z" fill="#0082FF"/>
<path d="M10.6399 7.74328C9.61751 6.72079 9.04123 5.3353 9.03688 3.88937C9.03253 2.44343 9.60046 1.05451 10.6167 0.0258789L3.50586 7.13669L7.37762 11.0084L10.6399 7.74328Z" fill="url(#paint0_linear_341_1669)"/>
<path d="M13.8942 10.9858L10.6406 14.2452C11.151 14.7538 11.556 15.3581 11.8323 16.0235C12.1086 16.6889 12.2509 17.4023 12.2509 18.1228C12.2509 18.8433 12.1086 19.5567 11.8323 20.2221C11.556 20.8875 11.151 21.4918 10.6406 22.0003L17.7718 14.8692L13.8942 10.9858Z" fill="url(#paint1_linear_341_1669)"/>
<defs>
<linearGradient id="paint0_linear_341_1669" x1="10.0536" y1="4.4549" x2="5.5143" y2="8.9942" gradientUnits="userSpaceOnUse">
<stop offset="0.18" stop-color="#0050D3"/>
<stop offset="1" stop-color="#0082FF"/>
</linearGradient>
<linearGradient id="paint1_linear_341_1669" x1="11.2559" y1="17.4959" x2="15.7865" y2="12.9653" gradientUnits="userSpaceOnUse">
<stop offset="0.18" stop-color="#0050D3"/>
<stop offset="1" stop-color="#0082FF"/>
</linearGradient>
</defs>
</svg>
