<svg width="21" height="21" viewBox="0 0 21 21" fill="none" xmlns="http://www.w3.org/2000/svg">
<path fill-rule="evenodd" clip-rule="evenodd" d="M2.71189 3.43924C2.60091 3.56121 2.60826 3.74835 2.72486 3.86496L17.135 18.2751C17.2516 18.3917 17.4388 18.3991 17.5608 18.2881C19.6737 16.3654 21 13.5933 21 10.5115C21 4.70616 16.2939 0 10.4885 0C7.40666 0 4.63457 1.3263 2.71189 3.43924ZM0.910846 6.17405C0.857596 6.29146 0.884445 6.42913 0.9756 6.52028L14.4797 20.0244C14.5709 20.1156 14.7085 20.1424 14.8259 20.0892C15.1379 19.9477 15.4417 19.7914 15.7365 19.6212C15.9117 19.52 15.9386 19.281 15.7955 19.1379L1.8621 5.2045C1.71905 5.06144 1.47998 5.08829 1.37883 5.26349C1.20864 5.55827 1.05235 5.86209 0.910846 6.17405ZM0.091594 10.0409C0.0283651 9.97763 -0.00527699 9.89049 0.000675459 9.80127C0.0285533 9.38341 0.0808493 8.97224 0.15615 8.56917C0.201301 8.32747 0.496628 8.24361 0.670484 8.41745L12.5826 20.3295C12.7564 20.5034 12.6725 20.7987 12.4308 20.8438C12.0278 20.9192 11.6166 20.9714 11.1987 20.9993C11.1095 21.0053 11.0224 20.9716 10.9591 20.9084L0.091594 10.0409ZM0.822607 12.9742C0.605576 12.7571 0.255339 12.9441 0.334822 13.2406C1.30321 16.8525 4.14752 19.6968 7.7594 20.6652C8.05587 20.7447 8.24288 20.3944 8.02585 20.1774L0.822607 12.9742Z" fill="#5E6AD2"/>
</svg>
