<svg width="23" height="13" viewBox="0 0 23 13" fill="none" xmlns="http://www.w3.org/2000/svg">
<path d="M2.75654 12.9999C1.75455 12.9999 0.833805 12.4853 0.34635 11.6188C-0.141106 10.7792 -0.114024 9.75018 0.427592 8.93775L5.38339 1.30095C5.89792 0.461446 6.84575 -0.0260089 7.84774 0.00107196C8.84973 0.0281528 9.77048 0.569769 10.2309 1.43636C10.6912 2.30294 10.6371 3.33202 10.0955 4.11736L5.0855 11.7542C4.59804 12.5124 3.70437 12.9999 2.75654 12.9999Z" fill="#FB275D"/>
<path d="M11.2331 13.0001C10.2311 13.0001 9.31037 12.4856 8.82291 11.646C8.33546 10.8065 8.36254 9.77747 8.90415 8.96504L13.887 1.35532C14.4016 0.515818 15.3223 0.00128185 16.3514 0.0283627C17.3805 0.0554435 18.2741 0.59706 18.7345 1.46365C19.1949 2.33023 19.1407 3.35931 18.5449 4.17173L13.5621 11.7544C13.0746 12.5126 12.1809 12.973 11.2331 13.0001Z" fill="#FFCC00"/>
<path d="M19.5181 13.0001C21.0346 13.0001 22.2804 11.7544 22.2804 10.2378C22.2804 8.7213 21.0346 7.47559 19.5181 7.47559C18.0016 7.47559 16.7559 8.7213 16.7559 10.2378C16.7559 11.7814 17.9745 13.0001 19.5181 13.0001Z" fill="#00CA72"/>
</svg>
