<svg width="18" height="19" viewBox="0 0 18 19" fill="none" xmlns="http://www.w3.org/2000/svg">
<path fill-rule="evenodd" clip-rule="evenodd" d="M15.862 0H2.13804C0.95345 0 0 0.953452 0 2.13804V15.8909C0 17.0754 0.95345 18.0289 2.13804 18.0289H15.862C17.0466 18.0289 18 17.0754 18 15.8909V2.13804C18 0.953452 17.0466 0 15.862 0ZM7.74318 12.9727C7.74318 13.3772 7.42536 13.695 7.02087 13.695H4.01605C3.61156 13.695 3.29374 13.3772 3.29374 12.9727V4.04494C3.29374 3.64045 3.61156 3.32263 4.01605 3.32263H7.02087C7.42536 3.32263 7.74318 3.64045 7.74318 4.04494V12.9727ZM14.6774 8.86999C14.6774 9.27448 14.3596 9.5923 13.9839 9.5923H10.9502C10.5457 9.5923 10.2279 9.27448 10.2279 8.86999V4.04494C10.2279 3.64045 10.5457 3.32263 10.9502 3.32263H13.9551C14.3596 3.32263 14.6774 3.64045 14.6774 4.04494V8.86999Z" fill="url(#paint0_linear_341_1735)"/>
<defs>
<linearGradient id="paint0_linear_341_1735" x1="8.99856" y1="18.0289" x2="8.99856" y2="0.00289023" gradientUnits="userSpaceOnUse">
<stop stop-color="#0050D3"/>
<stop offset="1" stop-color="#0082FF"/>
</linearGradient>
</defs>
</svg>
